<mxfile host="Electron" modified="2023-11-22T10:29:34.925Z" agent="Mozilla/5.0 (Windows NT 10.0; Win64; x64) AppleWebKit/537.36 (KHTML, like Gecko) draw.io/22.0.3 Chrome/114.0.5735.289 Electron/25.8.4 Safari/537.36" etag="EJyKwIGYoeS0C3PLsU0J" version="22.0.3" type="device">
  <diagram id="C5RBs43oDa-KdzZeNtuy" name="Page-1">
    <mxGraphModel dx="2084" dy="3311" grid="1" gridSize="10" guides="1" tooltips="1" connect="1" arrows="1" fold="1" page="1" pageScale="1" pageWidth="827" pageHeight="1169" math="0" shadow="0">
      <root>
        <mxCell id="WIyWlLk6GJQsqaUBKTNV-0" />
        <mxCell id="WIyWlLk6GJQsqaUBKTNV-1" parent="WIyWlLk6GJQsqaUBKTNV-0" />
        <mxCell id="2ZdoI27JGG5YFqBPgP_S-0" value="ActionRPG_Main" style="shape=umlLifeline;perimeter=lifelinePerimeter;whiteSpace=wrap;html=1;container=1;dropTarget=0;collapsible=0;recursiveResize=0;outlineConnect=0;portConstraint=eastwest;newEdgeStyle={&quot;curved&quot;:0,&quot;rounded&quot;:0};" parent="WIyWlLk6GJQsqaUBKTNV-1" vertex="1">
          <mxGeometry x="2290" y="-1030" width="100" height="470" as="geometry" />
        </mxCell>
        <mxCell id="2ZdoI27JGG5YFqBPgP_S-1" value="&lt;h1&gt;MainMap&lt;br&gt;&lt;/h1&gt;&lt;div&gt;关卡初始化流程，该关卡是做为UI关卡&lt;/div&gt;" style="text;html=1;strokeColor=none;fillColor=none;spacing=5;spacingTop=-20;whiteSpace=wrap;overflow=hidden;rounded=0;" parent="WIyWlLk6GJQsqaUBKTNV-1" vertex="1">
          <mxGeometry x="2020" y="-1070" width="210" height="120" as="geometry" />
        </mxCell>
        <mxCell id="2ZdoI27JGG5YFqBPgP_S-2" style="edgeStyle=orthogonalEdgeStyle;rounded=0;orthogonalLoop=1;jettySize=auto;html=1;" parent="WIyWlLk6GJQsqaUBKTNV-1" source="2ZdoI27JGG5YFqBPgP_S-3" target="2ZdoI27JGG5YFqBPgP_S-5" edge="1">
          <mxGeometry relative="1" as="geometry" />
        </mxCell>
        <mxCell id="2ZdoI27JGG5YFqBPgP_S-3" value="BP_MainMenuGameMode" style="html=1;whiteSpace=wrap;" parent="WIyWlLk6GJQsqaUBKTNV-1" vertex="1">
          <mxGeometry x="2252.5" y="-910" width="175" height="50" as="geometry" />
        </mxCell>
        <mxCell id="2ZdoI27JGG5YFqBPgP_S-4" style="edgeStyle=orthogonalEdgeStyle;rounded=0;orthogonalLoop=1;jettySize=auto;html=1;" parent="WIyWlLk6GJQsqaUBKTNV-1" source="2ZdoI27JGG5YFqBPgP_S-5" target="2ZdoI27JGG5YFqBPgP_S-7" edge="1">
          <mxGeometry relative="1" as="geometry" />
        </mxCell>
        <mxCell id="2ZdoI27JGG5YFqBPgP_S-20" value="从GameInstance中" style="edgeLabel;html=1;align=center;verticalAlign=middle;resizable=0;points=[];" parent="2ZdoI27JGG5YFqBPgP_S-4" vertex="1" connectable="0">
          <mxGeometry x="-0.0512" relative="1" as="geometry">
            <mxPoint as="offset" />
          </mxGeometry>
        </mxCell>
        <mxCell id="2ZdoI27JGG5YFqBPgP_S-5" value="创建UI" style="html=1;whiteSpace=wrap;" parent="WIyWlLk6GJQsqaUBKTNV-1" vertex="1">
          <mxGeometry x="2560" y="-910" width="110" height="50" as="geometry" />
        </mxCell>
        <mxCell id="2ZdoI27JGG5YFqBPgP_S-6" value="" style="edgeStyle=orthogonalEdgeStyle;rounded=0;orthogonalLoop=1;jettySize=auto;html=1;" parent="WIyWlLk6GJQsqaUBKTNV-1" source="2ZdoI27JGG5YFqBPgP_S-7" target="2ZdoI27JGG5YFqBPgP_S-8" edge="1">
          <mxGeometry relative="1" as="geometry" />
        </mxCell>
        <mxCell id="2ZdoI27JGG5YFqBPgP_S-7" value="从SaveGame中获取系统设置" style="html=1;whiteSpace=wrap;" parent="WIyWlLk6GJQsqaUBKTNV-1" vertex="1">
          <mxGeometry x="2810" y="-910" width="110" height="50" as="geometry" />
        </mxCell>
        <mxCell id="2ZdoI27JGG5YFqBPgP_S-8" value="设置当前系统" style="html=1;whiteSpace=wrap;" parent="WIyWlLk6GJQsqaUBKTNV-1" vertex="1">
          <mxGeometry x="3030" y="-910" width="110" height="50" as="geometry" />
        </mxCell>
        <mxCell id="2ZdoI27JGG5YFqBPgP_S-9" value="" style="edgeStyle=orthogonalEdgeStyle;rounded=0;orthogonalLoop=1;jettySize=auto;html=1;entryX=0;entryY=0.5;entryDx=0;entryDy=0;" parent="WIyWlLk6GJQsqaUBKTNV-1" source="2ZdoI27JGG5YFqBPgP_S-10" target="2ZdoI27JGG5YFqBPgP_S-13" edge="1">
          <mxGeometry relative="1" as="geometry">
            <mxPoint x="2560" y="-775" as="targetPoint" />
          </mxGeometry>
        </mxCell>
        <mxCell id="2ZdoI27JGG5YFqBPgP_S-10" value="Controller" style="html=1;whiteSpace=wrap;" parent="WIyWlLk6GJQsqaUBKTNV-1" vertex="1">
          <mxGeometry x="2252.5" y="-800" width="175" height="50" as="geometry" />
        </mxCell>
        <mxCell id="2ZdoI27JGG5YFqBPgP_S-13" value="显示鼠标光标" style="html=1;whiteSpace=wrap;" parent="WIyWlLk6GJQsqaUBKTNV-1" vertex="1">
          <mxGeometry x="2560" y="-800" width="110" height="50" as="geometry" />
        </mxCell>
        <mxCell id="2ZdoI27JGG5YFqBPgP_S-17" value="" style="edgeStyle=orthogonalEdgeStyle;rounded=0;orthogonalLoop=1;jettySize=auto;html=1;entryX=0;entryY=0.5;entryDx=0;entryDy=0;" parent="WIyWlLk6GJQsqaUBKTNV-1" source="2ZdoI27JGG5YFqBPgP_S-14" target="2ZdoI27JGG5YFqBPgP_S-15" edge="1">
          <mxGeometry relative="1" as="geometry">
            <mxPoint x="2580" y="-600" as="targetPoint" />
          </mxGeometry>
        </mxCell>
        <mxCell id="2ZdoI27JGG5YFqBPgP_S-14" value="RougeDemoInstance" style="html=1;whiteSpace=wrap;" parent="WIyWlLk6GJQsqaUBKTNV-1" vertex="1">
          <mxGeometry x="2260" y="-680" width="160" height="50" as="geometry" />
        </mxCell>
        <mxCell id="2ZdoI27JGG5YFqBPgP_S-19" value="" style="edgeStyle=orthogonalEdgeStyle;rounded=0;orthogonalLoop=1;jettySize=auto;html=1;" parent="WIyWlLk6GJQsqaUBKTNV-1" source="2ZdoI27JGG5YFqBPgP_S-15" target="2ZdoI27JGG5YFqBPgP_S-18" edge="1">
          <mxGeometry relative="1" as="geometry" />
        </mxCell>
        <mxCell id="2ZdoI27JGG5YFqBPgP_S-15" value="封装StoreItem(UItemBase)" style="html=1;whiteSpace=wrap;" parent="WIyWlLk6GJQsqaUBKTNV-1" vertex="1">
          <mxGeometry x="2560" y="-680" width="140" height="50" as="geometry" />
        </mxCell>
        <mxCell id="2ZdoI27JGG5YFqBPgP_S-18" value="创建SaveGame slot" style="html=1;whiteSpace=wrap;" parent="WIyWlLk6GJQsqaUBKTNV-1" vertex="1">
          <mxGeometry x="2780" y="-680" width="140" height="50" as="geometry" />
        </mxCell>
        <mxCell id="2ZdoI27JGG5YFqBPgP_S-21" value="保存功能" style="text;html=1;align=center;verticalAlign=middle;resizable=0;points=[];autosize=1;strokeColor=none;fillColor=none;fontSize=48;" parent="WIyWlLk6GJQsqaUBKTNV-1" vertex="1">
          <mxGeometry x="2020" y="-360" width="220" height="70" as="geometry" />
        </mxCell>
        <mxCell id="2ZdoI27JGG5YFqBPgP_S-22" value="&lt;h1&gt;保存&lt;/h1&gt;&lt;div&gt;1. 系统设置存储&lt;/div&gt;&lt;div&gt;2. 游戏内容存储&lt;/div&gt;&lt;div&gt;3. 读取保存&lt;/div&gt;" style="text;html=1;strokeColor=none;fillColor=none;spacing=5;spacingTop=-20;whiteSpace=wrap;overflow=hidden;rounded=0;" parent="WIyWlLk6GJQsqaUBKTNV-1" vertex="1">
          <mxGeometry x="2030" y="-230" width="380" height="120" as="geometry" />
        </mxCell>
        <mxCell id="2ZdoI27JGG5YFqBPgP_S-23" value="USaveGame" style="html=1;whiteSpace=wrap;" parent="WIyWlLk6GJQsqaUBKTNV-1" vertex="1">
          <mxGeometry x="2576" y="-30" width="110" height="40" as="geometry" />
        </mxCell>
        <mxCell id="2ZdoI27JGG5YFqBPgP_S-24" value="GlobalOptionsSaveGame" style="html=1;whiteSpace=wrap;" parent="WIyWlLk6GJQsqaUBKTNV-1" vertex="1">
          <mxGeometry x="2551" y="70" width="160" height="40" as="geometry" />
        </mxCell>
        <mxCell id="2ZdoI27JGG5YFqBPgP_S-25" value="Extends" style="endArrow=block;endSize=16;endFill=0;html=1;rounded=0;exitX=0.5;exitY=0;exitDx=0;exitDy=0;entryX=0.5;entryY=1;entryDx=0;entryDy=0;" parent="WIyWlLk6GJQsqaUBKTNV-1" source="2ZdoI27JGG5YFqBPgP_S-24" target="2ZdoI27JGG5YFqBPgP_S-23" edge="1">
          <mxGeometry width="160" relative="1" as="geometry">
            <mxPoint x="2676" y="120" as="sourcePoint" />
            <mxPoint x="2836" y="120" as="targetPoint" />
          </mxGeometry>
        </mxCell>
        <mxCell id="2ZdoI27JGG5YFqBPgP_S-26" value="" style="endArrow=open;endFill=1;endSize=12;html=1;rounded=0;exitX=1;exitY=0.5;exitDx=0;exitDy=0;" parent="WIyWlLk6GJQsqaUBKTNV-1" source="2ZdoI27JGG5YFqBPgP_S-24" edge="1">
          <mxGeometry width="160" relative="1" as="geometry">
            <mxPoint x="2751" y="90" as="sourcePoint" />
            <mxPoint x="2861" y="90" as="targetPoint" />
          </mxGeometry>
        </mxCell>
        <mxCell id="2ZdoI27JGG5YFqBPgP_S-27" value="GlobalOptionsStruct" style="html=1;whiteSpace=wrap;" parent="WIyWlLk6GJQsqaUBKTNV-1" vertex="1">
          <mxGeometry x="2861" y="70" width="160" height="40" as="geometry" />
        </mxCell>
        <mxCell id="2ZdoI27JGG5YFqBPgP_S-28" value="BP_GameInstance" style="html=1;whiteSpace=wrap;" parent="WIyWlLk6GJQsqaUBKTNV-1" vertex="1">
          <mxGeometry x="2301" y="70" width="160" height="40" as="geometry" />
        </mxCell>
        <mxCell id="2ZdoI27JGG5YFqBPgP_S-29" value="URougeDemoGameInstance" style="html=1;whiteSpace=wrap;" parent="WIyWlLk6GJQsqaUBKTNV-1" vertex="1">
          <mxGeometry x="2290" y="-30" width="182.5" height="40" as="geometry" />
        </mxCell>
        <mxCell id="2ZdoI27JGG5YFqBPgP_S-30" value="Extends" style="endArrow=block;endSize=16;endFill=0;html=1;rounded=0;exitX=0.5;exitY=0;exitDx=0;exitDy=0;entryX=0.5;entryY=1;entryDx=0;entryDy=0;" parent="WIyWlLk6GJQsqaUBKTNV-1" source="2ZdoI27JGG5YFqBPgP_S-28" target="2ZdoI27JGG5YFqBPgP_S-29" edge="1">
          <mxGeometry width="160" relative="1" as="geometry">
            <mxPoint x="2380.71" y="60" as="sourcePoint" />
            <mxPoint x="2380.71" as="targetPoint" />
          </mxGeometry>
        </mxCell>
        <mxCell id="2ZdoI27JGG5YFqBPgP_S-31" value="" style="endArrow=open;endFill=1;endSize=12;html=1;rounded=0;exitX=1;exitY=0.5;exitDx=0;exitDy=0;entryX=0;entryY=0.5;entryDx=0;entryDy=0;" parent="WIyWlLk6GJQsqaUBKTNV-1" source="2ZdoI27JGG5YFqBPgP_S-28" target="2ZdoI27JGG5YFqBPgP_S-24" edge="1">
          <mxGeometry width="160" relative="1" as="geometry">
            <mxPoint x="2441" y="160" as="sourcePoint" />
            <mxPoint x="2601" y="160" as="targetPoint" />
          </mxGeometry>
        </mxCell>
        <mxCell id="2ZdoI27JGG5YFqBPgP_S-32" value="UGameInstance" style="html=1;whiteSpace=wrap;" parent="WIyWlLk6GJQsqaUBKTNV-1" vertex="1">
          <mxGeometry x="2318.5" y="-130" width="122.5" height="40" as="geometry" />
        </mxCell>
        <mxCell id="2ZdoI27JGG5YFqBPgP_S-33" value="Extends" style="endArrow=block;endSize=16;endFill=0;html=1;rounded=0;exitX=0.5;exitY=0;exitDx=0;exitDy=0;entryX=0.5;entryY=1;entryDx=0;entryDy=0;" parent="WIyWlLk6GJQsqaUBKTNV-1" edge="1">
          <mxGeometry width="160" relative="1" as="geometry">
            <mxPoint x="2379.51" y="-30" as="sourcePoint" />
            <mxPoint x="2379.51" y="-90" as="targetPoint" />
          </mxGeometry>
        </mxCell>
        <mxCell id="2ZdoI27JGG5YFqBPgP_S-34" value="WriteSave" style="rounded=1;whiteSpace=wrap;html=1;" parent="WIyWlLk6GJQsqaUBKTNV-1" vertex="1">
          <mxGeometry x="2327.5" y="340" width="120" height="60" as="geometry" />
        </mxCell>
        <mxCell id="2ZdoI27JGG5YFqBPgP_S-35" style="edgeStyle=orthogonalEdgeStyle;rounded=0;orthogonalLoop=1;jettySize=auto;html=1;" parent="WIyWlLk6GJQsqaUBKTNV-1" source="2ZdoI27JGG5YFqBPgP_S-39" edge="1">
          <mxGeometry relative="1" as="geometry">
            <mxPoint x="2387.5" y="650" as="targetPoint" />
          </mxGeometry>
        </mxCell>
        <mxCell id="2ZdoI27JGG5YFqBPgP_S-36" value="Yes" style="edgeLabel;html=1;align=center;verticalAlign=middle;resizable=0;points=[];" parent="2ZdoI27JGG5YFqBPgP_S-35" vertex="1" connectable="0">
          <mxGeometry x="-0.2224" y="-1" relative="1" as="geometry">
            <mxPoint as="offset" />
          </mxGeometry>
        </mxCell>
        <mxCell id="2ZdoI27JGG5YFqBPgP_S-37" style="edgeStyle=orthogonalEdgeStyle;rounded=0;orthogonalLoop=1;jettySize=auto;html=1;entryX=0.5;entryY=0;entryDx=0;entryDy=0;" parent="WIyWlLk6GJQsqaUBKTNV-1" source="2ZdoI27JGG5YFqBPgP_S-39" target="2ZdoI27JGG5YFqBPgP_S-46" edge="1">
          <mxGeometry relative="1" as="geometry">
            <mxPoint x="2690" y="956.5116279069771" as="targetPoint" />
          </mxGeometry>
        </mxCell>
        <mxCell id="2ZdoI27JGG5YFqBPgP_S-38" value="No" style="edgeLabel;html=1;align=center;verticalAlign=middle;resizable=0;points=[];" parent="2ZdoI27JGG5YFqBPgP_S-37" vertex="1" connectable="0">
          <mxGeometry x="-0.6726" relative="1" as="geometry">
            <mxPoint as="offset" />
          </mxGeometry>
        </mxCell>
        <mxCell id="2ZdoI27JGG5YFqBPgP_S-39" value="检查是否可以存储" style="strokeWidth=2;html=1;shape=mxgraph.flowchart.decision;whiteSpace=wrap;" parent="WIyWlLk6GJQsqaUBKTNV-1" vertex="1">
          <mxGeometry x="2337.5" y="470" width="100" height="100" as="geometry" />
        </mxCell>
        <mxCell id="2ZdoI27JGG5YFqBPgP_S-40" value="bSavingEnabled" style="text;html=1;strokeColor=none;fillColor=none;align=center;verticalAlign=middle;whiteSpace=wrap;rounded=0;" parent="WIyWlLk6GJQsqaUBKTNV-1" vertex="1">
          <mxGeometry x="2200" y="510" width="100" height="30" as="geometry" />
        </mxCell>
        <mxCell id="2ZdoI27JGG5YFqBPgP_S-41" style="edgeStyle=orthogonalEdgeStyle;rounded=0;orthogonalLoop=1;jettySize=auto;html=1;entryX=0.5;entryY=0;entryDx=0;entryDy=0;entryPerimeter=0;" parent="WIyWlLk6GJQsqaUBKTNV-1" source="2ZdoI27JGG5YFqBPgP_S-34" target="2ZdoI27JGG5YFqBPgP_S-39" edge="1">
          <mxGeometry relative="1" as="geometry" />
        </mxCell>
        <mxCell id="2ZdoI27JGG5YFqBPgP_S-42" style="edgeStyle=orthogonalEdgeStyle;rounded=0;orthogonalLoop=1;jettySize=auto;html=1;exitX=0.5;exitY=1;exitDx=0;exitDy=0;" parent="WIyWlLk6GJQsqaUBKTNV-1" source="2ZdoI27JGG5YFqBPgP_S-53" target="2ZdoI27JGG5YFqBPgP_S-44" edge="1">
          <mxGeometry relative="1" as="geometry" />
        </mxCell>
        <mxCell id="2ZdoI27JGG5YFqBPgP_S-43" value="检查是否正在存储" style="strokeWidth=2;html=1;shape=mxgraph.flowchart.decision;whiteSpace=wrap;" parent="WIyWlLk6GJQsqaUBKTNV-1" vertex="1">
          <mxGeometry x="2337.5" y="650" width="100" height="100" as="geometry" />
        </mxCell>
        <mxCell id="2ZdoI27JGG5YFqBPgP_S-44" value="return true&lt;br&gt;结束" style="rounded=1;whiteSpace=wrap;html=1;" parent="WIyWlLk6GJQsqaUBKTNV-1" vertex="1">
          <mxGeometry x="2327.5" y="1090" width="120" height="60" as="geometry" />
        </mxCell>
        <mxCell id="2ZdoI27JGG5YFqBPgP_S-45" value="bCurrentlySaving" style="text;html=1;strokeColor=none;fillColor=none;align=center;verticalAlign=middle;whiteSpace=wrap;rounded=0;" parent="WIyWlLk6GJQsqaUBKTNV-1" vertex="1">
          <mxGeometry x="2200" y="685" width="100" height="30" as="geometry" />
        </mxCell>
        <mxCell id="2ZdoI27JGG5YFqBPgP_S-46" value="return true&lt;br&gt;结束" style="rounded=1;whiteSpace=wrap;html=1;" parent="WIyWlLk6GJQsqaUBKTNV-1" vertex="1">
          <mxGeometry x="2622.5" y="1090" width="120" height="60" as="geometry" />
        </mxCell>
        <mxCell id="2ZdoI27JGG5YFqBPgP_S-47" value="" style="edgeStyle=orthogonalEdgeStyle;rounded=0;orthogonalLoop=1;jettySize=auto;html=1;" parent="WIyWlLk6GJQsqaUBKTNV-1" target="2ZdoI27JGG5YFqBPgP_S-50" edge="1">
          <mxGeometry relative="1" as="geometry">
            <mxPoint x="2440" y="700" as="sourcePoint" />
            <mxPoint x="2380.5" y="1015" as="targetPoint" />
          </mxGeometry>
        </mxCell>
        <mxCell id="2ZdoI27JGG5YFqBPgP_S-48" value="No" style="edgeLabel;html=1;align=center;verticalAlign=middle;resizable=0;points=[];" parent="2ZdoI27JGG5YFqBPgP_S-47" vertex="1" connectable="0">
          <mxGeometry x="-0.803" y="1" relative="1" as="geometry">
            <mxPoint as="offset" />
          </mxGeometry>
        </mxCell>
        <mxCell id="2ZdoI27JGG5YFqBPgP_S-49" style="edgeStyle=orthogonalEdgeStyle;rounded=0;orthogonalLoop=1;jettySize=auto;html=1;" parent="WIyWlLk6GJQsqaUBKTNV-1" source="2ZdoI27JGG5YFqBPgP_S-50" target="2ZdoI27JGG5YFqBPgP_S-44" edge="1">
          <mxGeometry relative="1" as="geometry">
            <Array as="points">
              <mxPoint x="2563" y="960" />
              <mxPoint x="2387" y="960" />
            </Array>
          </mxGeometry>
        </mxCell>
        <mxCell id="2ZdoI27JGG5YFqBPgP_S-50" value="后台异步存取" style="rounded=0;whiteSpace=wrap;html=1;" parent="WIyWlLk6GJQsqaUBKTNV-1" vertex="1">
          <mxGeometry x="2502.5" y="820" width="120" height="60" as="geometry" />
        </mxCell>
        <mxCell id="2ZdoI27JGG5YFqBPgP_S-51" value="" style="edgeStyle=orthogonalEdgeStyle;rounded=0;orthogonalLoop=1;jettySize=auto;html=1;" parent="WIyWlLk6GJQsqaUBKTNV-1" source="2ZdoI27JGG5YFqBPgP_S-43" target="2ZdoI27JGG5YFqBPgP_S-53" edge="1">
          <mxGeometry relative="1" as="geometry">
            <mxPoint x="2388" y="750" as="sourcePoint" />
            <mxPoint x="2388" y="870" as="targetPoint" />
          </mxGeometry>
        </mxCell>
        <mxCell id="2ZdoI27JGG5YFqBPgP_S-52" value="Yes" style="edgeLabel;html=1;align=center;verticalAlign=middle;resizable=0;points=[];" parent="2ZdoI27JGG5YFqBPgP_S-51" vertex="1" connectable="0">
          <mxGeometry x="-0.755" relative="1" as="geometry">
            <mxPoint as="offset" />
          </mxGeometry>
        </mxCell>
        <mxCell id="2ZdoI27JGG5YFqBPgP_S-53" value="进行排队，设置bPendingSaveRequested为true，因为只排队一次" style="rounded=0;whiteSpace=wrap;html=1;" parent="WIyWlLk6GJQsqaUBKTNV-1" vertex="1">
          <mxGeometry x="2316.25" y="810" width="142.5" height="80" as="geometry" />
        </mxCell>
        <mxCell id="2ZdoI27JGG5YFqBPgP_S-54" style="edgeStyle=orthogonalEdgeStyle;rounded=0;orthogonalLoop=1;jettySize=auto;html=1;" parent="WIyWlLk6GJQsqaUBKTNV-1" source="2ZdoI27JGG5YFqBPgP_S-55" target="2ZdoI27JGG5YFqBPgP_S-60" edge="1">
          <mxGeometry relative="1" as="geometry" />
        </mxCell>
        <mxCell id="2ZdoI27JGG5YFqBPgP_S-55" value="LoadOrCreateSaveGame" style="rounded=1;whiteSpace=wrap;html=1;" parent="WIyWlLk6GJQsqaUBKTNV-1" vertex="1">
          <mxGeometry x="2316.25" y="1297" width="162.5" height="60" as="geometry" />
        </mxCell>
        <mxCell id="2ZdoI27JGG5YFqBPgP_S-56" style="edgeStyle=orthogonalEdgeStyle;rounded=0;orthogonalLoop=1;jettySize=auto;html=1;" parent="WIyWlLk6GJQsqaUBKTNV-1" source="2ZdoI27JGG5YFqBPgP_S-60" edge="1">
          <mxGeometry relative="1" as="geometry">
            <mxPoint x="2397.5" y="1710" as="targetPoint" />
          </mxGeometry>
        </mxCell>
        <mxCell id="2ZdoI27JGG5YFqBPgP_S-57" value="Yes" style="edgeLabel;html=1;align=center;verticalAlign=middle;resizable=0;points=[];" parent="2ZdoI27JGG5YFqBPgP_S-56" vertex="1" connectable="0">
          <mxGeometry x="-0.0503" relative="1" as="geometry">
            <mxPoint as="offset" />
          </mxGeometry>
        </mxCell>
        <mxCell id="2ZdoI27JGG5YFqBPgP_S-58" style="edgeStyle=orthogonalEdgeStyle;rounded=0;orthogonalLoop=1;jettySize=auto;html=1;entryX=0.5;entryY=0;entryDx=0;entryDy=0;" parent="WIyWlLk6GJQsqaUBKTNV-1" source="2ZdoI27JGG5YFqBPgP_S-60" target="2ZdoI27JGG5YFqBPgP_S-63" edge="1">
          <mxGeometry relative="1" as="geometry">
            <mxPoint x="2640" y="1700" as="targetPoint" />
          </mxGeometry>
        </mxCell>
        <mxCell id="2ZdoI27JGG5YFqBPgP_S-59" value="No" style="edgeLabel;html=1;align=center;verticalAlign=middle;resizable=0;points=[];" parent="2ZdoI27JGG5YFqBPgP_S-58" vertex="1" connectable="0">
          <mxGeometry x="-0.6839" y="-2" relative="1" as="geometry">
            <mxPoint as="offset" />
          </mxGeometry>
        </mxCell>
        <mxCell id="2ZdoI27JGG5YFqBPgP_S-60" value="是否存在Save Slot" style="strokeWidth=2;html=1;shape=mxgraph.flowchart.decision;whiteSpace=wrap;" parent="WIyWlLk6GJQsqaUBKTNV-1" vertex="1">
          <mxGeometry x="2347.5" y="1480" width="100" height="100" as="geometry" />
        </mxCell>
        <mxCell id="2ZdoI27JGG5YFqBPgP_S-61" value="读取存储" style="rounded=0;whiteSpace=wrap;html=1;" parent="WIyWlLk6GJQsqaUBKTNV-1" vertex="1">
          <mxGeometry x="2339" y="1710" width="120" height="60" as="geometry" />
        </mxCell>
        <mxCell id="2ZdoI27JGG5YFqBPgP_S-62" style="edgeStyle=orthogonalEdgeStyle;rounded=0;orthogonalLoop=1;jettySize=auto;html=1;" parent="WIyWlLk6GJQsqaUBKTNV-1" source="2ZdoI27JGG5YFqBPgP_S-63" edge="1">
          <mxGeometry relative="1" as="geometry">
            <mxPoint x="2400" y="1970" as="targetPoint" />
          </mxGeometry>
        </mxCell>
        <mxCell id="2ZdoI27JGG5YFqBPgP_S-63" value="处理SaveGame读取" style="rounded=0;whiteSpace=wrap;html=1;" parent="WIyWlLk6GJQsqaUBKTNV-1" vertex="1">
          <mxGeometry x="2575" y="1810" width="120" height="60" as="geometry" />
        </mxCell>
        <mxCell id="2ZdoI27JGG5YFqBPgP_S-64" style="edgeStyle=orthogonalEdgeStyle;rounded=0;orthogonalLoop=1;jettySize=auto;html=1;" parent="WIyWlLk6GJQsqaUBKTNV-1" source="2ZdoI27JGG5YFqBPgP_S-67" target="2ZdoI27JGG5YFqBPgP_S-70" edge="1">
          <mxGeometry relative="1" as="geometry" />
        </mxCell>
        <mxCell id="2ZdoI27JGG5YFqBPgP_S-65" value="Yes" style="edgeLabel;html=1;align=center;verticalAlign=middle;resizable=0;points=[];" parent="2ZdoI27JGG5YFqBPgP_S-64" vertex="1" connectable="0">
          <mxGeometry x="-0.28" y="4" relative="1" as="geometry">
            <mxPoint as="offset" />
          </mxGeometry>
        </mxCell>
        <mxCell id="2ZdoI27JGG5YFqBPgP_S-66" style="edgeStyle=orthogonalEdgeStyle;rounded=0;orthogonalLoop=1;jettySize=auto;html=1;entryX=0.5;entryY=0;entryDx=0;entryDy=0;" parent="WIyWlLk6GJQsqaUBKTNV-1" source="2ZdoI27JGG5YFqBPgP_S-75" target="2ZdoI27JGG5YFqBPgP_S-72" edge="1">
          <mxGeometry relative="1" as="geometry">
            <mxPoint x="2700" y="2170" as="targetPoint" />
          </mxGeometry>
        </mxCell>
        <mxCell id="2ZdoI27JGG5YFqBPgP_S-67" value="是否能获取存取对象" style="strokeWidth=2;html=1;shape=mxgraph.flowchart.decision;whiteSpace=wrap;" parent="WIyWlLk6GJQsqaUBKTNV-1" vertex="1">
          <mxGeometry x="2349" y="1977.5" width="100" height="100" as="geometry" />
        </mxCell>
        <mxCell id="2ZdoI27JGG5YFqBPgP_S-68" style="edgeStyle=orthogonalEdgeStyle;rounded=0;orthogonalLoop=1;jettySize=auto;html=1;entryX=0.5;entryY=0;entryDx=0;entryDy=0;entryPerimeter=0;" parent="WIyWlLk6GJQsqaUBKTNV-1" source="2ZdoI27JGG5YFqBPgP_S-61" target="2ZdoI27JGG5YFqBPgP_S-67" edge="1">
          <mxGeometry relative="1" as="geometry" />
        </mxCell>
        <mxCell id="2ZdoI27JGG5YFqBPgP_S-69" style="edgeStyle=orthogonalEdgeStyle;rounded=0;orthogonalLoop=1;jettySize=auto;html=1;" parent="WIyWlLk6GJQsqaUBKTNV-1" source="2ZdoI27JGG5YFqBPgP_S-70" target="2ZdoI27JGG5YFqBPgP_S-76" edge="1">
          <mxGeometry relative="1" as="geometry" />
        </mxCell>
        <mxCell id="2ZdoI27JGG5YFqBPgP_S-70" value="确保能添加到默认库存" style="rounded=0;whiteSpace=wrap;html=1;" parent="WIyWlLk6GJQsqaUBKTNV-1" vertex="1">
          <mxGeometry x="2339" y="2210" width="120" height="60" as="geometry" />
        </mxCell>
        <mxCell id="2ZdoI27JGG5YFqBPgP_S-71" style="edgeStyle=orthogonalEdgeStyle;rounded=0;orthogonalLoop=1;jettySize=auto;html=1;entryX=0.5;entryY=0;entryDx=0;entryDy=0;" parent="WIyWlLk6GJQsqaUBKTNV-1" source="2ZdoI27JGG5YFqBPgP_S-78" target="2ZdoI27JGG5YFqBPgP_S-76" edge="1">
          <mxGeometry relative="1" as="geometry">
            <Array as="points">
              <mxPoint x="2399" y="2310" />
            </Array>
          </mxGeometry>
        </mxCell>
        <mxCell id="2ZdoI27JGG5YFqBPgP_S-72" value="确保能添加到默认库存" style="rounded=0;whiteSpace=wrap;html=1;" parent="WIyWlLk6GJQsqaUBKTNV-1" vertex="1">
          <mxGeometry x="2640" y="2210" width="120" height="60" as="geometry" />
        </mxCell>
        <mxCell id="2ZdoI27JGG5YFqBPgP_S-73" value="" style="edgeStyle=orthogonalEdgeStyle;rounded=0;orthogonalLoop=1;jettySize=auto;html=1;entryX=0.5;entryY=0;entryDx=0;entryDy=0;" parent="WIyWlLk6GJQsqaUBKTNV-1" source="2ZdoI27JGG5YFqBPgP_S-67" target="2ZdoI27JGG5YFqBPgP_S-75" edge="1">
          <mxGeometry relative="1" as="geometry">
            <mxPoint x="2700" y="2210" as="targetPoint" />
            <mxPoint x="2449" y="2028" as="sourcePoint" />
          </mxGeometry>
        </mxCell>
        <mxCell id="2ZdoI27JGG5YFqBPgP_S-74" value="No" style="edgeLabel;html=1;align=center;verticalAlign=middle;resizable=0;points=[];" parent="2ZdoI27JGG5YFqBPgP_S-73" vertex="1" connectable="0">
          <mxGeometry x="-0.4497" y="-2" relative="1" as="geometry">
            <mxPoint as="offset" />
          </mxGeometry>
        </mxCell>
        <mxCell id="2ZdoI27JGG5YFqBPgP_S-75" value="创建存取对象" style="rounded=0;whiteSpace=wrap;html=1;" parent="WIyWlLk6GJQsqaUBKTNV-1" vertex="1">
          <mxGeometry x="2640" y="2100" width="120" height="60" as="geometry" />
        </mxCell>
        <mxCell id="2ZdoI27JGG5YFqBPgP_S-76" value="结束" style="rounded=1;whiteSpace=wrap;html=1;" parent="WIyWlLk6GJQsqaUBKTNV-1" vertex="1">
          <mxGeometry x="2317.75" y="2470" width="162.5" height="60" as="geometry" />
        </mxCell>
        <mxCell id="2ZdoI27JGG5YFqBPgP_S-77" value="" style="edgeStyle=orthogonalEdgeStyle;rounded=0;orthogonalLoop=1;jettySize=auto;html=1;entryX=0.5;entryY=0;entryDx=0;entryDy=0;" parent="WIyWlLk6GJQsqaUBKTNV-1" source="2ZdoI27JGG5YFqBPgP_S-72" target="2ZdoI27JGG5YFqBPgP_S-78" edge="1">
          <mxGeometry relative="1" as="geometry">
            <mxPoint x="2700" y="2270" as="sourcePoint" />
            <mxPoint x="2399" y="2470" as="targetPoint" />
            <Array as="points">
              <mxPoint x="2700" y="2310" />
            </Array>
          </mxGeometry>
        </mxCell>
        <mxCell id="2ZdoI27JGG5YFqBPgP_S-78" value="广播" style="rounded=0;whiteSpace=wrap;html=1;" parent="WIyWlLk6GJQsqaUBKTNV-1" vertex="1">
          <mxGeometry x="2339" y="2360" width="120" height="60" as="geometry" />
        </mxCell>
        <mxCell id="z-7Z3sgDwcarm7FR9FHU-3" value="从文件中获取数据" style="text;html=1;strokeColor=none;fillColor=none;align=center;verticalAlign=middle;whiteSpace=wrap;rounded=0;" parent="WIyWlLk6GJQsqaUBKTNV-1" vertex="1">
          <mxGeometry x="2820" y="-980" width="60" height="30" as="geometry" />
        </mxCell>
        <mxCell id="z-7Z3sgDwcarm7FR9FHU-4" value="加载到当前内存中，如果文件中没有数据，则创建数据，并存储到文件中" style="text;html=1;strokeColor=none;fillColor=none;align=center;verticalAlign=middle;whiteSpace=wrap;rounded=0;" parent="WIyWlLk6GJQsqaUBKTNV-1" vertex="1">
          <mxGeometry x="3030" y="-1000" width="270" height="60" as="geometry" />
        </mxCell>
        <mxCell id="lYKfybisx1mBeHdonKSR-0" value="&lt;h1&gt;流程简图&lt;/h1&gt;" style="text;html=1;strokeColor=none;fillColor=none;spacing=5;spacingTop=-20;whiteSpace=wrap;overflow=hidden;rounded=0;" vertex="1" parent="WIyWlLk6GJQsqaUBKTNV-1">
          <mxGeometry x="3300" y="-400" width="190" height="120" as="geometry" />
        </mxCell>
        <mxCell id="lYKfybisx1mBeHdonKSR-3" value="" style="edgeStyle=orthogonalEdgeStyle;rounded=0;orthogonalLoop=1;jettySize=auto;html=1;" edge="1" parent="WIyWlLk6GJQsqaUBKTNV-1" source="lYKfybisx1mBeHdonKSR-6" target="lYKfybisx1mBeHdonKSR-2">
          <mxGeometry relative="1" as="geometry" />
        </mxCell>
        <mxCell id="lYKfybisx1mBeHdonKSR-1" value="开始" style="rounded=1;whiteSpace=wrap;html=1;" vertex="1" parent="WIyWlLk6GJQsqaUBKTNV-1">
          <mxGeometry x="3810" y="-340" width="120" height="60" as="geometry" />
        </mxCell>
        <mxCell id="lYKfybisx1mBeHdonKSR-5" value="" style="edgeStyle=orthogonalEdgeStyle;rounded=0;orthogonalLoop=1;jettySize=auto;html=1;" edge="1" parent="WIyWlLk6GJQsqaUBKTNV-1" source="lYKfybisx1mBeHdonKSR-2" target="lYKfybisx1mBeHdonKSR-4">
          <mxGeometry relative="1" as="geometry" />
        </mxCell>
        <mxCell id="lYKfybisx1mBeHdonKSR-2" value="初始化UI" style="rounded=0;whiteSpace=wrap;html=1;" vertex="1" parent="WIyWlLk6GJQsqaUBKTNV-1">
          <mxGeometry x="3810" y="-30" width="120" height="60" as="geometry" />
        </mxCell>
        <mxCell id="lYKfybisx1mBeHdonKSR-12" value="" style="edgeStyle=orthogonalEdgeStyle;rounded=0;orthogonalLoop=1;jettySize=auto;html=1;" edge="1" parent="WIyWlLk6GJQsqaUBKTNV-1" source="lYKfybisx1mBeHdonKSR-4" target="lYKfybisx1mBeHdonKSR-11">
          <mxGeometry relative="1" as="geometry" />
        </mxCell>
        <mxCell id="lYKfybisx1mBeHdonKSR-4" value="加载系统设置" style="rounded=0;whiteSpace=wrap;html=1;" vertex="1" parent="WIyWlLk6GJQsqaUBKTNV-1">
          <mxGeometry x="3810" y="110" width="120" height="60" as="geometry" />
        </mxCell>
        <mxCell id="lYKfybisx1mBeHdonKSR-8" value="" style="edgeStyle=orthogonalEdgeStyle;rounded=0;orthogonalLoop=1;jettySize=auto;html=1;" edge="1" parent="WIyWlLk6GJQsqaUBKTNV-1" source="lYKfybisx1mBeHdonKSR-1" target="lYKfybisx1mBeHdonKSR-6">
          <mxGeometry relative="1" as="geometry">
            <mxPoint x="3870" y="-270" as="sourcePoint" />
            <mxPoint x="3870" y="-30" as="targetPoint" />
          </mxGeometry>
        </mxCell>
        <mxCell id="lYKfybisx1mBeHdonKSR-6" value="创建存取节点" style="rounded=0;whiteSpace=wrap;html=1;" vertex="1" parent="WIyWlLk6GJQsqaUBKTNV-1">
          <mxGeometry x="3810" y="-180" width="120" height="60" as="geometry" />
        </mxCell>
        <mxCell id="lYKfybisx1mBeHdonKSR-11" value="结束" style="rounded=1;whiteSpace=wrap;html=1;" vertex="1" parent="WIyWlLk6GJQsqaUBKTNV-1">
          <mxGeometry x="3810" y="240" width="120" height="60" as="geometry" />
        </mxCell>
        <mxCell id="lYKfybisx1mBeHdonKSR-14" value="Mainmap中初始化加载" style="text;html=1;strokeColor=none;fillColor=none;align=center;verticalAlign=middle;whiteSpace=wrap;rounded=0;" vertex="1" parent="WIyWlLk6GJQsqaUBKTNV-1">
          <mxGeometry x="3630" y="-325" width="80" height="155" as="geometry" />
        </mxCell>
        <mxCell id="lYKfybisx1mBeHdonKSR-17" value="" style="edgeStyle=orthogonalEdgeStyle;rounded=0;orthogonalLoop=1;jettySize=auto;html=1;" edge="1" parent="WIyWlLk6GJQsqaUBKTNV-1" source="lYKfybisx1mBeHdonKSR-15" target="lYKfybisx1mBeHdonKSR-16">
          <mxGeometry relative="1" as="geometry" />
        </mxCell>
        <mxCell id="lYKfybisx1mBeHdonKSR-15" value="开始" style="rounded=1;whiteSpace=wrap;html=1;" vertex="1" parent="WIyWlLk6GJQsqaUBKTNV-1">
          <mxGeometry x="3805" y="440" width="120" height="60" as="geometry" />
        </mxCell>
        <mxCell id="lYKfybisx1mBeHdonKSR-19" value="" style="edgeStyle=orthogonalEdgeStyle;rounded=0;orthogonalLoop=1;jettySize=auto;html=1;" edge="1" parent="WIyWlLk6GJQsqaUBKTNV-1" source="lYKfybisx1mBeHdonKSR-16" target="lYKfybisx1mBeHdonKSR-18">
          <mxGeometry relative="1" as="geometry" />
        </mxCell>
        <mxCell id="lYKfybisx1mBeHdonKSR-16" value="载入关卡" style="rounded=0;whiteSpace=wrap;html=1;" vertex="1" parent="WIyWlLk6GJQsqaUBKTNV-1">
          <mxGeometry x="3805" y="575" width="120" height="60" as="geometry" />
        </mxCell>
        <mxCell id="lYKfybisx1mBeHdonKSR-21" style="edgeStyle=orthogonalEdgeStyle;rounded=0;orthogonalLoop=1;jettySize=auto;html=1;" edge="1" parent="WIyWlLk6GJQsqaUBKTNV-1" source="lYKfybisx1mBeHdonKSR-18" target="lYKfybisx1mBeHdonKSR-20">
          <mxGeometry relative="1" as="geometry" />
        </mxCell>
        <mxCell id="lYKfybisx1mBeHdonKSR-18" value="进入加载画面" style="rounded=0;whiteSpace=wrap;html=1;" vertex="1" parent="WIyWlLk6GJQsqaUBKTNV-1">
          <mxGeometry x="3805" y="730" width="120" height="60" as="geometry" />
        </mxCell>
        <mxCell id="lYKfybisx1mBeHdonKSR-20" value="结束" style="rounded=1;whiteSpace=wrap;html=1;" vertex="1" parent="WIyWlLk6GJQsqaUBKTNV-1">
          <mxGeometry x="3805" y="880" width="120" height="60" as="geometry" />
        </mxCell>
        <mxCell id="lYKfybisx1mBeHdonKSR-22" value="Mainmap中点击StartGame" style="text;html=1;strokeColor=none;fillColor=none;align=center;verticalAlign=middle;whiteSpace=wrap;rounded=0;" vertex="1" parent="WIyWlLk6GJQsqaUBKTNV-1">
          <mxGeometry x="3630" y="460" width="80" height="155" as="geometry" />
        </mxCell>
        <mxCell id="lYKfybisx1mBeHdonKSR-23" value="Mainmap中点击Options" style="text;html=1;strokeColor=none;fillColor=none;align=center;verticalAlign=middle;whiteSpace=wrap;rounded=0;" vertex="1" parent="WIyWlLk6GJQsqaUBKTNV-1">
          <mxGeometry x="3630" y="1065" width="80" height="155" as="geometry" />
        </mxCell>
        <mxCell id="lYKfybisx1mBeHdonKSR-26" value="" style="edgeStyle=orthogonalEdgeStyle;rounded=0;orthogonalLoop=1;jettySize=auto;html=1;" edge="1" parent="WIyWlLk6GJQsqaUBKTNV-1" source="lYKfybisx1mBeHdonKSR-24" target="lYKfybisx1mBeHdonKSR-25">
          <mxGeometry relative="1" as="geometry" />
        </mxCell>
        <mxCell id="lYKfybisx1mBeHdonKSR-24" value="开始" style="rounded=1;whiteSpace=wrap;html=1;" vertex="1" parent="WIyWlLk6GJQsqaUBKTNV-1">
          <mxGeometry x="3800" y="1090" width="120" height="60" as="geometry" />
        </mxCell>
        <mxCell id="lYKfybisx1mBeHdonKSR-27" style="edgeStyle=orthogonalEdgeStyle;rounded=0;orthogonalLoop=1;jettySize=auto;html=1;entryX=0.5;entryY=0;entryDx=0;entryDy=0;" edge="1" parent="WIyWlLk6GJQsqaUBKTNV-1" source="lYKfybisx1mBeHdonKSR-25" target="lYKfybisx1mBeHdonKSR-28">
          <mxGeometry relative="1" as="geometry">
            <mxPoint x="3860.0000000000005" y="1380" as="targetPoint" />
          </mxGeometry>
        </mxCell>
        <mxCell id="lYKfybisx1mBeHdonKSR-25" value="读取SaveGame中的Options" style="rounded=0;whiteSpace=wrap;html=1;" vertex="1" parent="WIyWlLk6GJQsqaUBKTNV-1">
          <mxGeometry x="3800" y="1220" width="120" height="60" as="geometry" />
        </mxCell>
        <mxCell id="lYKfybisx1mBeHdonKSR-30" style="edgeStyle=orthogonalEdgeStyle;rounded=0;orthogonalLoop=1;jettySize=auto;html=1;entryX=0.5;entryY=0;entryDx=0;entryDy=0;" edge="1" parent="WIyWlLk6GJQsqaUBKTNV-1" source="lYKfybisx1mBeHdonKSR-28">
          <mxGeometry relative="1" as="geometry">
            <mxPoint x="3860.0000000000005" y="1500" as="targetPoint" />
          </mxGeometry>
        </mxCell>
        <mxCell id="lYKfybisx1mBeHdonKSR-28" value="UI显示" style="rounded=0;whiteSpace=wrap;html=1;" vertex="1" parent="WIyWlLk6GJQsqaUBKTNV-1">
          <mxGeometry x="3800" y="1370" width="120" height="60" as="geometry" />
        </mxCell>
        <mxCell id="lYKfybisx1mBeHdonKSR-33" style="edgeStyle=orthogonalEdgeStyle;rounded=0;orthogonalLoop=1;jettySize=auto;html=1;entryX=0.5;entryY=0;entryDx=0;entryDy=0;" edge="1" parent="WIyWlLk6GJQsqaUBKTNV-1" source="lYKfybisx1mBeHdonKSR-31" target="lYKfybisx1mBeHdonKSR-34">
          <mxGeometry relative="1" as="geometry">
            <mxPoint x="3860.0000000000005" y="1650" as="targetPoint" />
          </mxGeometry>
        </mxCell>
        <mxCell id="lYKfybisx1mBeHdonKSR-37" value="有" style="edgeLabel;html=1;align=center;verticalAlign=middle;resizable=0;points=[];" vertex="1" connectable="0" parent="lYKfybisx1mBeHdonKSR-33">
          <mxGeometry x="-0.2287" y="-3" relative="1" as="geometry">
            <mxPoint as="offset" />
          </mxGeometry>
        </mxCell>
        <mxCell id="lYKfybisx1mBeHdonKSR-35" style="edgeStyle=orthogonalEdgeStyle;rounded=0;orthogonalLoop=1;jettySize=auto;html=1;entryX=1;entryY=0.5;entryDx=0;entryDy=0;" edge="1" parent="WIyWlLk6GJQsqaUBKTNV-1" source="lYKfybisx1mBeHdonKSR-31" target="lYKfybisx1mBeHdonKSR-38">
          <mxGeometry relative="1" as="geometry">
            <mxPoint x="4070.0000000000005" y="1640" as="targetPoint" />
            <Array as="points">
              <mxPoint x="4040" y="1540" />
              <mxPoint x="4040" y="1790" />
            </Array>
          </mxGeometry>
        </mxCell>
        <mxCell id="lYKfybisx1mBeHdonKSR-31" value="是否更改Options" style="rhombus;whiteSpace=wrap;html=1;" vertex="1" parent="WIyWlLk6GJQsqaUBKTNV-1">
          <mxGeometry x="3820" y="1500" width="80" height="80" as="geometry" />
        </mxCell>
        <mxCell id="lYKfybisx1mBeHdonKSR-39" value="" style="edgeStyle=orthogonalEdgeStyle;rounded=0;orthogonalLoop=1;jettySize=auto;html=1;" edge="1" parent="WIyWlLk6GJQsqaUBKTNV-1" source="lYKfybisx1mBeHdonKSR-34" target="lYKfybisx1mBeHdonKSR-38">
          <mxGeometry relative="1" as="geometry" />
        </mxCell>
        <mxCell id="lYKfybisx1mBeHdonKSR-34" value="更改SaveGame中Options" style="rounded=0;whiteSpace=wrap;html=1;" vertex="1" parent="WIyWlLk6GJQsqaUBKTNV-1">
          <mxGeometry x="3800" y="1640" width="120" height="60" as="geometry" />
        </mxCell>
        <mxCell id="lYKfybisx1mBeHdonKSR-38" value="结束" style="rounded=1;whiteSpace=wrap;html=1;" vertex="1" parent="WIyWlLk6GJQsqaUBKTNV-1">
          <mxGeometry x="3800" y="1760" width="120" height="60" as="geometry" />
        </mxCell>
        <mxCell id="lYKfybisx1mBeHdonKSR-41" value="Mainmap中点击Quit" style="text;html=1;strokeColor=none;fillColor=none;align=center;verticalAlign=middle;whiteSpace=wrap;rounded=0;" vertex="1" parent="WIyWlLk6GJQsqaUBKTNV-1">
          <mxGeometry x="3650" y="1977.5" width="80" height="155" as="geometry" />
        </mxCell>
        <mxCell id="lYKfybisx1mBeHdonKSR-45" value="" style="edgeStyle=orthogonalEdgeStyle;rounded=0;orthogonalLoop=1;jettySize=auto;html=1;" edge="1" parent="WIyWlLk6GJQsqaUBKTNV-1" source="lYKfybisx1mBeHdonKSR-42" target="lYKfybisx1mBeHdonKSR-44">
          <mxGeometry relative="1" as="geometry" />
        </mxCell>
        <mxCell id="lYKfybisx1mBeHdonKSR-42" value="开始" style="rounded=1;whiteSpace=wrap;html=1;" vertex="1" parent="WIyWlLk6GJQsqaUBKTNV-1">
          <mxGeometry x="3810" y="2000" width="120" height="60" as="geometry" />
        </mxCell>
        <mxCell id="lYKfybisx1mBeHdonKSR-43" value="结束" style="rounded=1;whiteSpace=wrap;html=1;" vertex="1" parent="WIyWlLk6GJQsqaUBKTNV-1">
          <mxGeometry x="3810" y="2250" width="120" height="60" as="geometry" />
        </mxCell>
        <mxCell id="lYKfybisx1mBeHdonKSR-46" value="" style="edgeStyle=orthogonalEdgeStyle;rounded=0;orthogonalLoop=1;jettySize=auto;html=1;" edge="1" parent="WIyWlLk6GJQsqaUBKTNV-1" source="lYKfybisx1mBeHdonKSR-44" target="lYKfybisx1mBeHdonKSR-43">
          <mxGeometry relative="1" as="geometry" />
        </mxCell>
        <mxCell id="lYKfybisx1mBeHdonKSR-44" value="退出游戏" style="rounded=0;whiteSpace=wrap;html=1;" vertex="1" parent="WIyWlLk6GJQsqaUBKTNV-1">
          <mxGeometry x="3810" y="2130" width="120" height="60" as="geometry" />
        </mxCell>
      </root>
    </mxGraphModel>
  </diagram>
</mxfile>
